<svg width="24" height="24" viewBox="0 0 24 24" fill="none" xmlns="http://www.w3.org/2000/svg">
<g clip-path="url(#clip0_574645_323)">
<path d="M23.9941 24.0001V23.9991H24.0001V15.1971C24.0001 10.8911 23.0731 7.5741 18.0391 7.5741C15.619 7.5741 13.995 8.9021 13.332 10.1611H13.262V7.9761H8.48904V23.9991H13.459V16.0651C13.459 13.9761 13.855 11.9561 16.442 11.9561C18.9911 11.9561 19.0291 14.3401 19.0291 16.1991V24.0001H23.9941Z" fill="#F4F4FD"/>
<path d="M0.396027 7.97693H5.37203V23.9999H0.396027V7.97693Z" fill="#F4F4FD"/>
<path d="M2.88203 0C1.29103 0 3.05176e-05 1.291 3.05176e-05 2.882C3.05176e-05 4.473 1.29103 5.791 2.88203 5.791C4.47303 5.791 5.76403 4.473 5.76403 2.882C5.76303 1.291 4.47203 0 2.88203 0V0Z" fill="#F4F4FD"/>
</g>
<defs>
<clipPath id="clip0_574645_323">
<rect width="24" height="24" fill="white"/>
</clipPath>
</defs>
</svg>
